<svg viewBox="0 0 600 400" xmlns="http://www.w3.org/2000/svg">
<g transform="translate(72, 364)">
<g>
<g>
<circle cx="32.54237041566541" cy="-14.166666886562275" fill="#DD3355" r="5"/>
<circle cx="32.54237041566541" cy="-14.166666886562275" fill="#DD3355" r="5"/>
<circle cx="24.406775387153377" cy="-14.166666886562275" fill="#DD3355" r="5"/>
<circle cx="40.677965444177445" cy="-14.166666886562275" fill="#DD3355" r="5"/>
<circle cx="32.54237041566541" cy="-14.166666886562275" fill="#DD3355" r="5"/>
<circle cx="56.94915550120151" cy="-42.500000659686826" fill="#DD3355" r="5"/>
<circle cx="32.54237041566541" cy="-28.333334828623467" fill="#DD3355" r="5"/>
<circle cx="40.677965444177445" cy="-14.166666886562275" fill="#DD3355" r="5"/>
<circle cx="32.54237041566541" cy="-14.166666886562275" fill="#DD3355" r="5"/>
<circle cx="40.677965444177445" cy="-0" fill="#DD3355" r="5"/>
<circle cx="40.677965444177445" cy="-14.166666886562275" fill="#DD3355" r="5"/>
<circle cx="48.813560472689474" cy="-14.166666886562275" fill="#DD3355" r="5"/>
<circle cx="32.54237041566541" cy="-0" fill="#DD3355" r="5"/>
<circle cx="8.135595028512032" cy="-0" fill="#DD3355" r="5"/>
<circle cx="16.271190057024064" cy="-14.166666886562275" fill="#DD3355" r="5"/>
<circle cx="40.677965444177445" cy="-42.500000659686826" fill="#DD3355" r="5"/>
<circle cx="24.406775387153377" cy="-42.500000659686826" fill="#DD3355" r="5"/>
<circle cx="32.54237041566541" cy="-28.333334828623467" fill="#DD3355" r="5"/>
<circle cx="56.94915550120151" cy="-28.333334828623467" fill="#DD3355" r="5"/>
<circle cx="40.677965444177445" cy="-28.333334828623467" fill="#DD3355" r="5"/>
<circle cx="56.94915550120151" cy="-14.166666886562275" fill="#DD3355" r="5"/>
<circle cx="40.677965444177445" cy="-42.500000659686826" fill="#DD3355" r="5"/>
<circle cx="0" cy="-14.166666886562275" fill="#DD3355" r="5"/>
<circle cx="56.94915550120151" cy="-56.66666649075018" fill="#DD3355" r="5"/>
<circle cx="73.22033585984285" cy="-14.166666886562275" fill="#DD3355" r="5"/>
<circle cx="48.813560472689474" cy="-14.166666886562275" fill="#DD3355" r="5"/>
<circle cx="48.813560472689474" cy="-42.500000659686826" fill="#DD3355" r="5"/>
<circle cx="40.677965444177445" cy="-14.166666886562275" fill="#DD3355" r="5"/>
<circle cx="32.54237041566541" cy="-14.166666886562275" fill="#DD3355" r="5"/>
<circle cx="48.813560472689474" cy="-14.166666886562275" fill="#DD3355" r="5"/>
<circle cx="48.813560472689474" cy="-14.166666886562275" fill="#DD3355" r="5"/>
<circle cx="40.677965444177445" cy="-42.500000659686826" fill="#DD3355" r="5"/>
<circle cx="40.677965444177445" cy="-0" fill="#DD3355" r="5"/>
<circle cx="32.54237041566541" cy="-14.166666886562275" fill="#DD3355" r="5"/>
<circle cx="40.677965444177445" cy="-0" fill="#DD3355" r="5"/>
<circle cx="16.271190057024064" cy="-14.166666886562275" fill="#DD3355" r="5"/>
<circle cx="24.406775387153377" cy="-14.166666886562275" fill="#DD3355" r="5"/>
<circle cx="40.677965444177445" cy="-0" fill="#DD3355" r="5"/>
<circle cx="24.406775387153377" cy="-14.166666886562275" fill="#DD3355" r="5"/>
<circle cx="40.677965444177445" cy="-14.166666886562275" fill="#DD3355" r="5"/>
<circle cx="24.406775387153377" cy="-28.333334828623467" fill="#DD3355" r="5"/>
<circle cx="24.406775387153377" cy="-28.333334828623467" fill="#DD3355" r="5"/>
<circle cx="24.406775387153377" cy="-14.166666886562275" fill="#DD3355" r="5"/>
<circle cx="48.813560472689474" cy="-70.83333654380921" fill="#DD3355" r="5"/>
<circle cx="73.22033585984285" cy="-42.500000659686826" fill="#DD3355" r="5"/>
<circle cx="32.54237041566541" cy="-28.333334828623467" fill="#DD3355" r="5"/>
<circle cx="48.813560472689474" cy="-14.166666886562275" fill="#DD3355" r="5"/>
<circle cx="32.54237041566541" cy="-14.166666886562275" fill="#DD3355" r="5"/>
<circle cx="40.677965444177445" cy="-14.166666886562275" fill="#DD3355" r="5"/>
<circle cx="32.54237041566541" cy="-14.166666886562275" fill="#DD3355" r="5"/>
<circle cx="301.01692876950074" cy="-184.16666319231607" fill="#DD3355" r="5"/>
<circle cx="284.7457581092421" cy="-198.3333332453751" fill="#DD3355" r="5"/>
<circle cx="317.2881382232902" cy="-198.3333332453751" fill="#DD3355" r="5"/>
<circle cx="244.06779266506464" cy="-169.99999313925704" fill="#DD3355" r="5"/>
<circle cx="292.8813434393714" cy="-198.3333332453751" fill="#DD3355" r="5"/>
<circle cx="284.7457581092421" cy="-169.99999313925704" fill="#DD3355" r="5"/>
<circle cx="301.01692876950074" cy="-212.5000032984341" fill="#DD3355" r="5"/>
<circle cx="187.11863716386316" cy="-127.49999986806263" fill="#DD3355" r="5"/>
<circle cx="292.8813434393714" cy="-169.99999313925704" fill="#DD3355" r="5"/>
<circle cx="235.93220733493536" cy="-184.16666319231607" fill="#DD3355" r="5"/>
<circle cx="203.3898272208872" cy="-127.49999986806263" fill="#DD3355" r="5"/>
<circle cx="260.3389633253233" cy="-198.3333332453751" fill="#DD3355" r="5"/>
<circle cx="244.06779266506464" cy="-127.49999986806263" fill="#DD3355" r="5"/>
<circle cx="301.01692876950074" cy="-184.16666319231607" fill="#DD3355" r="5"/>
<circle cx="211.52541255101653" cy="-169.99999313925704" fill="#DD3355" r="5"/>
<circle cx="276.61017277911276" cy="-184.16666319231607" fill="#DD3355" r="5"/>
<circle cx="284.7457581092421" cy="-198.3333332453751" fill="#DD3355" r="5"/>
<circle cx="252.20337799519396" cy="-127.49999986806263" fill="#DD3355" r="5"/>
<circle cx="284.7457581092421" cy="-198.3333332453751" fill="#DD3355" r="5"/>
<circle cx="235.93220733493536" cy="-141.66666992112167" fill="#DD3355" r="5"/>
<circle cx="309.15255289316093" cy="-240.83332651656949" fill="#DD3355" r="5"/>
<circle cx="244.06779266506464" cy="-169.99999313925704" fill="#DD3355" r="5"/>
<circle cx="317.2881382232902" cy="-198.3333332453751" fill="#DD3355" r="5"/>
<circle cx="301.01692876950074" cy="-155.8333399741807" fill="#DD3355" r="5"/>
<circle cx="268.47458744898347" cy="-169.99999313925704" fill="#DD3355" r="5"/>
<circle cx="276.61017277911276" cy="-184.16666319231607" fill="#DD3355" r="5"/>
<circle cx="309.15255289316093" cy="-184.16666319231607" fill="#DD3355" r="5"/>
<circle cx="325.42372355341956" cy="-226.66667335149316" fill="#DD3355" r="5"/>
<circle cx="284.7457581092421" cy="-198.3333332453751" fill="#DD3355" r="5"/>
<circle cx="203.3898272208872" cy="-127.49999986806263" fill="#DD3355" r="5"/>
<circle cx="227.7966026080406" cy="-141.66666992112167" fill="#DD3355" r="5"/>
<circle cx="219.66101727791127" cy="-127.49999986806263" fill="#DD3355" r="5"/>
<circle cx="235.93220733493536" cy="-155.8333399741807" fill="#DD3355" r="5"/>
<circle cx="333.55930888354885" cy="-212.5000032984341" fill="#DD3355" r="5"/>
<circle cx="284.7457581092421" cy="-198.3333332453751" fill="#DD3355" r="5"/>
<circle cx="284.7457581092421" cy="-212.5000032984341" fill="#DD3355" r="5"/>
<circle cx="301.01692876950074" cy="-198.3333332453751" fill="#DD3355" r="5"/>
<circle cx="276.61017277911276" cy="-169.99999313925704" fill="#DD3355" r="5"/>
<circle cx="252.20337799519396" cy="-169.99999313925704" fill="#DD3355" r="5"/>
<circle cx="244.06779266506464" cy="-169.99999313925704" fill="#DD3355" r="5"/>
<circle cx="276.61017277911276" cy="-155.8333399741807" fill="#DD3355" r="5"/>
<circle cx="292.8813434393714" cy="-184.16666319231607" fill="#DD3355" r="5"/>
<circle cx="244.06779266506464" cy="-155.8333399741807" fill="#DD3355" r="5"/>
<circle cx="187.11863716386316" cy="-127.49999986806263" fill="#DD3355" r="5"/>
<circle cx="260.3389633253233" cy="-169.99999313925704" fill="#DD3355" r="5"/>
<circle cx="260.3389633253233" cy="-155.8333399741807" fill="#DD3355" r="5"/>
<circle cx="260.3389633253233" cy="-169.99999313925704" fill="#DD3355" r="5"/>
<circle cx="268.47458744898347" cy="-169.99999313925704" fill="#DD3355" r="5"/>
<circle cx="162.71186177670978" cy="-141.66666992112167" fill="#DD3355" r="5"/>
<circle cx="252.20337799519396" cy="-169.99999313925704" fill="#DD3355" r="5"/>
<circle cx="406.7796544417744" cy="-340" fill="#DD3355" r="5"/>
<circle cx="333.55930888354885" cy="-254.9999965696285" fill="#DD3355" r="5"/>
<circle cx="398.64406911164514" cy="-283.33331978776386" fill="#DD3355" r="5"/>
<circle cx="374.2372743277263" cy="-240.83332651656949" fill="#DD3355" r="5"/>
<circle cx="390.5084837815158" cy="-297.5000067288056" fill="#DD3355" r="5"/>
<circle cx="455.5932052160812" cy="-283.33331978776386" fill="#DD3355" r="5"/>
<circle cx="284.7457581092421" cy="-226.66667335149316" fill="#DD3355" r="5"/>
<circle cx="431.18644922569325" cy="-240.83332651656949" fill="#DD3355" r="5"/>
<circle cx="390.5084837815158" cy="-240.83332651656949" fill="#DD3355" r="5"/>
<circle cx="414.9152397719037" cy="-340" fill="#DD3355" r="5"/>
<circle cx="333.55930888354885" cy="-269.16666662268756" fill="#DD3355" r="5"/>
<circle cx="349.83051833733833" cy="-254.9999965696285" fill="#DD3355" r="5"/>
<circle cx="366.10168899759697" cy="-283.33331978776386" fill="#DD3355" r="5"/>
<circle cx="325.42372355341956" cy="-269.16666662268756" fill="#DD3355" r="5"/>
<circle cx="333.55930888354885" cy="-325.83334683492365" fill="#DD3355" r="5"/>
<circle cx="349.83051833733833" cy="-311.66665989388196" fill="#DD3355" r="5"/>
<circle cx="366.10168899759697" cy="-240.83332651656949" fill="#DD3355" r="5"/>
<circle cx="463.7287905462105" cy="-297.5000067288056" fill="#DD3355" r="5"/>
<circle cx="480" cy="-311.66665989388196" fill="#DD3355" r="5"/>
<circle cx="325.42372355341956" cy="-198.3333332453751" fill="#DD3355" r="5"/>
<circle cx="382.3728596578556" cy="-311.66665989388196" fill="#DD3355" r="5"/>
<circle cx="317.2881382232902" cy="-269.16666662268756" fill="#DD3355" r="5"/>
<circle cx="463.7287905462105" cy="-269.16666662268756" fill="#DD3355" r="5"/>
<circle cx="317.2881382232902" cy="-240.83332651656949" fill="#DD3355" r="5"/>
<circle cx="382.3728596578556" cy="-283.33331978776386" fill="#DD3355" r="5"/>
<circle cx="406.7796544417744" cy="-240.83332651656949" fill="#DD3355" r="5"/>
<circle cx="309.15255289316093" cy="-240.83332651656949" fill="#DD3355" r="5"/>
<circle cx="317.2881382232902" cy="-240.83332651656949" fill="#DD3355" r="5"/>
<circle cx="374.2372743277263" cy="-283.33331978776386" fill="#DD3355" r="5"/>
<circle cx="390.5084837815158" cy="-212.5000032984341" fill="#DD3355" r="5"/>
<circle cx="414.9152397719037" cy="-254.9999965696285" fill="#DD3355" r="5"/>
<circle cx="439.32203455582254" cy="-269.16666662268756" fill="#DD3355" r="5"/>
<circle cx="374.2372743277263" cy="-297.5000067288056" fill="#DD3355" r="5"/>
<circle cx="333.55930888354885" cy="-198.3333332453751" fill="#DD3355" r="5"/>
<circle cx="374.2372743277263" cy="-184.16666319231607" fill="#DD3355" r="5"/>
<circle cx="414.9152397719037" cy="-311.66665989388196" fill="#DD3355" r="5"/>
<circle cx="374.2372743277263" cy="-325.83334683492365" fill="#DD3355" r="5"/>
<circle cx="366.10168899759697" cy="-240.83332651656949" fill="#DD3355" r="5"/>
<circle cx="309.15255289316093" cy="-240.83332651656949" fill="#DD3355" r="5"/>
<circle cx="357.9661036674677" cy="-283.33331978776386" fill="#DD3355" r="5"/>
<circle cx="374.2372743277263" cy="-325.83334683492365" fill="#DD3355" r="5"/>
<circle cx="333.55930888354885" cy="-311.66665989388196" fill="#DD3355" r="5"/>
<circle cx="333.55930888354885" cy="-254.9999965696285" fill="#DD3355" r="5"/>
<circle cx="398.64406911164514" cy="-311.66665989388196" fill="#DD3355" r="5"/>
<circle cx="382.3728596578556" cy="-340" fill="#DD3355" r="5"/>
<circle cx="341.69489421367814" cy="-311.66665989388196" fill="#DD3355" r="5"/>
<circle cx="325.42372355341956" cy="-254.9999965696285" fill="#DD3355" r="5"/>
<circle cx="341.69489421367814" cy="-269.16666662268756" fill="#DD3355" r="5"/>
<circle cx="357.9661036674677" cy="-311.66665989388196" fill="#DD3355" r="5"/>
<circle cx="333.55930888354885" cy="-240.83332651656949" fill="#DD3355" r="5"/>
</g>
</g>
<g>
<g>
<line stroke="black" stroke-width="1" x1="0" x2="0" y1="0" y2="10"/>
<line stroke="black" stroke-width="1" x1="81.35593088835489" x2="81.35593088835489" y1="0" y2="10"/>
<line stroke="black" stroke-width="1" x1="162.71186177670978" x2="162.71186177670978" y1="0" y2="10"/>
<line stroke="black" stroke-width="1" x1="244.06779266506464" x2="244.06779266506464" y1="0" y2="10"/>
<line stroke="black" stroke-width="1" x1="325.42372355341956" x2="325.42372355341956" y1="0" y2="10"/>
<line stroke="black" stroke-width="1" x1="406.7796544417744" x2="406.7796544417744" y1="0" y2="10"/>
</g>
<line stroke="black" stroke-width="1" x1="0" x2="480" y1="0" y2="0"/>
<g>
<text font-size="12" text-anchor="middle" x="0" y="20">
1
</text>
<text font-size="12" text-anchor="middle" x="81.35593088835489" y="20">
2
</text>
<text font-size="12" text-anchor="middle" x="162.71186177670978" y="20">
3
</text>
<text font-size="12" text-anchor="middle" x="244.06779266506464" y="20">
4
</text>
<text font-size="12" text-anchor="middle" x="325.42372355341956" y="20">
5
</text>
<text font-size="12" text-anchor="middle" x="406.7796544417744" y="20">
6
</text>
</g>
<text font-size="12" text-anchor="middle" x="240" y="30">
petal_length
</text>
</g>
<g>
<g>
<line stroke="black" stroke-width="1" x1="0" x2="-10" y1="0.00000021109978292416849" y2="0.00000021109978292416849"/>
<line stroke="black" stroke-width="1" x1="0" x2="-10" y1="-70.83333316621267" y2="-70.83333316621267"/>
<line stroke="black" stroke-width="1" x1="0" x2="-10" y1="-141.66666654352514" y2="-141.66666654352514"/>
<line stroke="black" stroke-width="1" x1="0" x2="-10" y1="-212.4999999208376" y2="-212.4999999208376"/>
<line stroke="black" stroke-width="1" x1="0" x2="-10" y1="-283.33333329815" y2="-283.33333329815"/>
</g>
<line stroke="black" stroke-width="1" x1="0" x2="0" y1="0" y2="-340"/>
<g>
<text dominant-baseline="middle" font-size="12" text-anchor="end" x="-15" y="0.00000021109978292416849">
0.1
</text>
<text dominant-baseline="middle" font-size="12" text-anchor="end" x="-15" y="-70.83333316621267">
0.6
</text>
<text dominant-baseline="middle" font-size="12" text-anchor="end" x="-15" y="-141.66666654352514">
1.1
</text>
<text dominant-baseline="middle" font-size="12" text-anchor="end" x="-15" y="-212.4999999208376">
1.6
</text>
<text dominant-baseline="middle" font-size="12" text-anchor="end" x="-15" y="-283.33333329815">
2.1
</text>
</g>
<text font-size="12" text-anchor="middle" transform="rotate(-90 -36 -170)" x="-36" y="-182">
petal_width
</text>
</g>
</g>
</svg>