<svg viewBox="0 0 600 400" xmlns="http://www.w3.org/2000/svg">
<g transform="translate(72, 364)">
<g>
<rect fill="burlywood" height="93.5" stroke="black" width="31.99999999999999" x="0" y="-93.5"/>
<rect fill="burlywood" height="314.5" stroke="black" width="32.000000000000014" x="31.99999999999999" y="-314.5"/>
<rect fill="burlywood" height="17" stroke="black" width="32.000000000000014" x="64" y="-17"/>
<rect fill="burlywood" height="0" stroke="black" width="31.999999999999986" x="96.00000000000001" y="-0"/>
<rect fill="burlywood" height="0" stroke="black" width="32" x="128" y="-0"/>
<rect fill="burlywood" height="25.5" stroke="black" width="32" x="160" y="-25.5"/>
<rect fill="burlywood" height="34" stroke="black" width="32" x="192" y="-34"/>
<rect fill="burlywood" height="102" stroke="black" width="32" x="224" y="-102"/>
<rect fill="burlywood" height="153" stroke="black" width="31.999999999999943" x="256" y="-153"/>
<rect fill="burlywood" height="144.5" stroke="black" width="32.00000000000006" x="287.99999999999994" y="-144.5"/>
<rect fill="burlywood" height="136" stroke="black" width="31.999999999999943" x="320" y="-136"/>
<rect fill="burlywood" height="119" stroke="black" width="32.00000000000006" x="351.99999999999994" y="-119"/>
<rect fill="burlywood" height="85" stroke="black" width="32" x="384" y="-85"/>
<rect fill="burlywood" height="17" stroke="black" width="32" x="416" y="-17"/>
<rect fill="burlywood" height="34" stroke="black" width="32" x="448" y="-34"/>
</g>
<g>
<g>
<line stroke="black" stroke-width="1" x1="0" x2="0" y1="0" y2="10"/>
<line stroke="black" stroke-width="1" x1="81.35593088835489" x2="81.35593088835489" y1="0" y2="10"/>
<line stroke="black" stroke-width="1" x1="162.71186177670978" x2="162.71186177670978" y1="0" y2="10"/>
<line stroke="black" stroke-width="1" x1="244.06779266506464" x2="244.06779266506464" y1="0" y2="10"/>
<line stroke="black" stroke-width="1" x1="325.42372355341956" x2="325.42372355341956" y1="0" y2="10"/>
<line stroke="black" stroke-width="1" x1="406.7796544417744" x2="406.7796544417744" y1="0" y2="10"/>
</g>
<line stroke="black" stroke-width="1" x1="0" x2="480" y1="0" y2="0"/>
<g>
<text font-size="12" text-anchor="middle" x="0" y="20">
1
</text>
<text font-size="12" text-anchor="middle" x="81.35593088835489" y="20">
2
</text>
<text font-size="12" text-anchor="middle" x="162.71186177670978" y="20">
3
</text>
<text font-size="12" text-anchor="middle" x="244.06779266506464" y="20">
4
</text>
<text font-size="12" text-anchor="middle" x="325.42372355341956" y="20">
5
</text>
<text font-size="12" text-anchor="middle" x="406.7796544417744" y="20">
6
</text>
</g>
<text font-size="12" text-anchor="middle" x="240" y="30">
petal_length
</text>
</g>
<g>
<g>
<line stroke="black" stroke-width="1" x1="0" x2="-10" y1="-0" y2="-0"/>
<line stroke="black" stroke-width="1" x1="0" x2="-10" y1="-85" y2="-85"/>
<line stroke="black" stroke-width="1" x1="0" x2="-10" y1="-170" y2="-170"/>
<line stroke="black" stroke-width="1" x1="0" x2="-10" y1="-255" y2="-255"/>
<line stroke="black" stroke-width="1" x1="0" x2="-10" y1="-340" y2="-340"/>
</g>
<line stroke="black" stroke-width="1" x1="0" x2="0" y1="0" y2="-340"/>
<g>
<text dominant-baseline="middle" font-size="12" text-anchor="end" x="-15" y="-0">
0
</text>
<text dominant-baseline="middle" font-size="12" text-anchor="end" x="-15" y="-85">
10
</text>
<text dominant-baseline="middle" font-size="12" text-anchor="end" x="-15" y="-170">
20
</text>
<text dominant-baseline="middle" font-size="12" text-anchor="end" x="-15" y="-255">
30
</text>
<text dominant-baseline="middle" font-size="12" text-anchor="end" x="-15" y="-340">
40
</text>
</g>
<text font-size="12" text-anchor="middle" transform="rotate(-90 -24 -170)" x="-24" y="-182">
intensity/Distribution
</text>
</g>
</g>
</svg>