<svg viewBox="0 0 600 400" xmlns="http://www.w3.org/2000/svg">
<g transform="translate(72, 364)">
<g>
<rect fill="burlywood" height="80.95238095238095" stroke="black" width="32.00000000000001" x="0" y="-80.95238095238095"/>
<rect fill="burlywood" height="97.14285714285714" stroke="black" width="32.00000000000001" x="32.00000000000001" y="-97.14285714285714"/>
<rect fill="burlywood" height="340" stroke="black" width="32.000000000000014" x="64.00000000000001" y="-340"/>
<rect fill="burlywood" height="210.47619047619048" stroke="black" width="32" x="96.00000000000003" y="-210.47619047619048"/>
<rect fill="burlywood" height="226.66666666666666" stroke="black" width="31.999999999999915" x="128.00000000000003" y="-226.66666666666666"/>
<rect fill="burlywood" height="226.66666666666666" stroke="black" width="32.000000000000114" x="159.99999999999994" y="-226.66666666666666"/>
<rect fill="burlywood" height="161.9047619047619" stroke="black" width="31.999999999999886" x="192.00000000000006" y="-161.9047619047619"/>
<rect fill="burlywood" height="259.04761904761904" stroke="black" width="32.000000000000114" x="223.99999999999994" y="-259.04761904761904"/>
<rect fill="burlywood" height="259.04761904761904" stroke="black" width="31.999999999999886" x="256.00000000000006" y="-259.04761904761904"/>
<rect fill="burlywood" height="242.85714285714286" stroke="black" width="32" x="287.99999999999994" y="-242.85714285714286"/>
<rect fill="burlywood" height="113.33333333333333" stroke="black" width="32.00000000000006" x="319.99999999999994" y="-113.33333333333333"/>
<rect fill="burlywood" height="32.38095238095238" stroke="black" width="32.000000000000114" x="352" y="-32.38095238095238"/>
<rect fill="burlywood" height="80.95238095238095" stroke="black" width="31.999999999999886" x="384.0000000000001" y="-80.95238095238095"/>
<rect fill="burlywood" height="16.19047619047619" stroke="black" width="32" x="416" y="-16.19047619047619"/>
<rect fill="burlywood" height="80.95238095238095" stroke="black" width="32" x="448" y="-80.95238095238095"/>
</g>
<g>
<g>
<line stroke="black" stroke-width="1" x1="-0.00002543131580155122" x2="-0.00002543131580155122" y1="0" y2="10"/>
<line stroke="black" stroke-width="1" x1="133.33331143414472" x2="133.33331143414472" y1="0" y2="10"/>
<line stroke="black" stroke-width="1" x1="266.66664829960524" x2="266.66664829960524" y1="0" y2="10"/>
<line stroke="black" stroke-width="1" x1="399.9999851650658" x2="399.9999851650658" y1="0" y2="10"/>
</g>
<line stroke="black" stroke-width="1" x1="0" x2="480" y1="0" y2="0"/>
<g>
<text font-size="12" text-anchor="middle" x="-0.00002543131580155122" y="20">
4.3
</text>
<text font-size="12" text-anchor="middle" x="133.33331143414472" y="20">
5.3
</text>
<text font-size="12" text-anchor="middle" x="266.66664829960524" y="20">
6.3
</text>
<text font-size="12" text-anchor="middle" x="399.9999851650658" y="20">
7.3
</text>
</g>
<text font-size="12" text-anchor="middle" x="240" y="30">
sepal_length
</text>
</g>
<g>
<g>
<line stroke="black" stroke-width="1" x1="0" x2="-10" y1="-0" y2="-0"/>
<line stroke="black" stroke-width="1" x1="0" x2="-10" y1="-64.76190476190476" y2="-64.76190476190476"/>
<line stroke="black" stroke-width="1" x1="0" x2="-10" y1="-129.52380952380952" y2="-129.52380952380952"/>
<line stroke="black" stroke-width="1" x1="0" x2="-10" y1="-194.28571428571428" y2="-194.28571428571428"/>
<line stroke="black" stroke-width="1" x1="0" x2="-10" y1="-259.04761904761904" y2="-259.04761904761904"/>
<line stroke="black" stroke-width="1" x1="0" x2="-10" y1="-323.8095238095238" y2="-323.8095238095238"/>
</g>
<line stroke="black" stroke-width="1" x1="0" x2="0" y1="0" y2="-340"/>
<g>
<text dominant-baseline="middle" font-size="12" text-anchor="end" x="-15" y="-0">
0
</text>
<text dominant-baseline="middle" font-size="12" text-anchor="end" x="-15" y="-64.76190476190476">
4
</text>
<text dominant-baseline="middle" font-size="12" text-anchor="end" x="-15" y="-129.52380952380952">
8
</text>
<text dominant-baseline="middle" font-size="12" text-anchor="end" x="-15" y="-194.28571428571428">
12
</text>
<text dominant-baseline="middle" font-size="12" text-anchor="end" x="-15" y="-259.04761904761904">
16
</text>
<text dominant-baseline="middle" font-size="12" text-anchor="end" x="-15" y="-323.8095238095238">
20
</text>
</g>
<text font-size="12" text-anchor="middle" transform="rotate(-90 -24 -170)" x="-24" y="-182">
intensity
</text>
</g>
</g>
</svg>