<svg viewBox="0 0 600 400" xmlns="http://www.w3.org/2000/svg">
<g transform="translate(72, 364)">
<g>
<rect fill="burlywood" height="73.91304347826087" stroke="black" width="32.00000000000001" x="0" y="-73.91304347826087"/>
<rect fill="burlywood" height="88.69565217391305" stroke="black" width="32.00000000000001" x="32.00000000000001" y="-88.69565217391305"/>
<rect fill="burlywood" height="310.4347826086956" stroke="black" width="32.000000000000014" x="64.00000000000001" y="-310.4347826086956"/>
<rect fill="burlywood" height="192.17391304347825" stroke="black" width="32" x="96.00000000000003" y="-192.17391304347825"/>
<rect fill="burlywood" height="206.95652173913044" stroke="black" width="31.999999999999915" x="128.00000000000003" y="-206.95652173913044"/>
<rect fill="burlywood" height="206.95652173913044" stroke="black" width="32.000000000000114" x="159.99999999999994" y="-206.95652173913044"/>
<rect fill="burlywood" height="147.82608695652175" stroke="black" width="31.999999999999886" x="192.00000000000006" y="-147.82608695652175"/>
<rect fill="burlywood" height="236.52173913043478" stroke="black" width="32.000000000000114" x="223.99999999999994" y="-236.52173913043478"/>
<rect fill="burlywood" height="236.52173913043478" stroke="black" width="31.999999999999886" x="256.00000000000006" y="-236.52173913043478"/>
<rect fill="burlywood" height="221.7391304347826" stroke="black" width="32" x="287.99999999999994" y="-221.7391304347826"/>
<rect fill="burlywood" height="103.47826086956522" stroke="black" width="32.00000000000006" x="319.99999999999994" y="-103.47826086956522"/>
<rect fill="burlywood" height="29.565217391304348" stroke="black" width="32.000000000000114" x="352" y="-29.565217391304348"/>
<rect fill="burlywood" height="73.91304347826087" stroke="black" width="31.999999999999886" x="384.0000000000001" y="-73.91304347826087"/>
<rect fill="burlywood" height="14.782608695652174" stroke="black" width="32" x="416" y="-14.782608695652174"/>
<rect fill="burlywood" height="73.91304347826087" stroke="black" width="32" x="448" y="-73.91304347826087"/>
</g>
<g>
<g>
<line stroke="black" stroke-width="1" x1="-0.00002543131580155122" x2="-0.00002543131580155122" y1="0" y2="10"/>
<line stroke="black" stroke-width="1" x1="133.33331143414472" x2="133.33331143414472" y1="0" y2="10"/>
<line stroke="black" stroke-width="1" x1="266.66664829960524" x2="266.66664829960524" y1="0" y2="10"/>
<line stroke="black" stroke-width="1" x1="399.9999851650658" x2="399.9999851650658" y1="0" y2="10"/>
</g>
<line stroke="black" stroke-width="1" x1="0" x2="480" y1="0" y2="0"/>
<g>
<text font-size="12" text-anchor="middle" x="-0.00002543131580155122" y="20">
4.3
</text>
<text font-size="12" text-anchor="middle" x="133.33331143414472" y="20">
5.3
</text>
<text font-size="12" text-anchor="middle" x="266.66664829960524" y="20">
6.3
</text>
<text font-size="12" text-anchor="middle" x="399.9999851650658" y="20">
7.3
</text>
</g>
<text font-size="12" text-anchor="middle" x="240" y="30">
sepal_length
</text>
</g>
<g>
<g>
<line stroke="black" stroke-width="1" x1="0" x2="-10" y1="-0" y2="-0"/>
<line stroke="black" stroke-width="1" x1="0" x2="-10" y1="-59.130434782608695" y2="-59.130434782608695"/>
<line stroke="black" stroke-width="1" x1="0" x2="-10" y1="-118.26086956521739" y2="-118.26086956521739"/>
<line stroke="black" stroke-width="1" x1="0" x2="-10" y1="-177.3913043478261" y2="-177.3913043478261"/>
<line stroke="black" stroke-width="1" x1="0" x2="-10" y1="-236.52173913043478" y2="-236.52173913043478"/>
<line stroke="black" stroke-width="1" x1="0" x2="-10" y1="-295.6521739130435" y2="-295.6521739130435"/>
</g>
<line stroke="black" stroke-width="1" x1="0" x2="0" y1="0" y2="-340"/>
<g>
<text dominant-baseline="middle" font-size="12" text-anchor="end" x="-15" y="-0">
0
</text>
<text dominant-baseline="middle" font-size="12" text-anchor="end" x="-15" y="-59.130434782608695">
4
</text>
<text dominant-baseline="middle" font-size="12" text-anchor="end" x="-15" y="-118.26086956521739">
8
</text>
<text dominant-baseline="middle" font-size="12" text-anchor="end" x="-15" y="-177.3913043478261">
12
</text>
<text dominant-baseline="middle" font-size="12" text-anchor="end" x="-15" y="-236.52173913043478">
16
</text>
<text dominant-baseline="middle" font-size="12" text-anchor="end" x="-15" y="-295.6521739130435">
20
</text>
</g>
<text font-size="12" text-anchor="middle" transform="rotate(-90 -24 -170)" x="-24" y="-182">
intensity/Distribution
</text>
</g>
</g>
</svg>