<svg viewBox="0 0 600 400" xmlns="http://www.w3.org/2000/svg">
<g transform="translate(72, 364)">
<g>
<rect fill="burlywood" height="312.43243243243245" stroke="black" width="32" x="0" y="-312.43243243243245"/>
<rect fill="burlywood" height="128.64864864864865" stroke="black" width="32" x="32" y="-128.64864864864865"/>
<rect fill="burlywood" height="9.18918918918919" stroke="black" width="32.000000000000014" x="64" y="-9.18918918918919"/>
<rect fill="burlywood" height="9.18918918918919" stroke="black" width="31.999999999999986" x="96.00000000000001" y="-9.18918918918919"/>
<rect fill="burlywood" height="0" stroke="black" width="32" x="128" y="-0"/>
<rect fill="burlywood" height="64.32432432432432" stroke="black" width="32.00000000000003" x="160" y="-64.32432432432432"/>
<rect fill="burlywood" height="73.51351351351352" stroke="black" width="31.99999999999997" x="192.00000000000003" y="-73.51351351351352"/>
<rect fill="burlywood" height="119.45945945945945" stroke="black" width="32" x="224" y="-119.45945945945945"/>
<rect fill="burlywood" height="183.78378378378378" stroke="black" width="32" x="256" y="-183.78378378378378"/>
<rect fill="burlywood" height="36.75675675675676" stroke="black" width="32" x="288" y="-36.75675675675676"/>
<rect fill="burlywood" height="128.64864864864865" stroke="black" width="32" x="320" y="-128.64864864864865"/>
<rect fill="burlywood" height="101.08108108108108" stroke="black" width="32.00000000000006" x="352" y="-101.08108108108108"/>
<rect fill="burlywood" height="55.13513513513514" stroke="black" width="31.999999999999943" x="384.00000000000006" y="-55.13513513513514"/>
<rect fill="burlywood" height="101.08108108108108" stroke="black" width="32" x="416" y="-101.08108108108108"/>
<rect fill="burlywood" height="55.13513513513514" stroke="black" width="32" x="448" y="-55.13513513513514"/>
</g>
<g>
<g>
<line stroke="black" stroke-width="1" x1="-0.00000029802322295176725" x2="-0.00000029802322295176725" y1="0" y2="10"/>
<line stroke="black" stroke-width="1" x1="99.99999976406495" x2="99.99999976406495" y1="0" y2="10"/>
<line stroke="black" stroke-width="1" x1="199.99999982615313" x2="199.99999982615313" y1="0" y2="10"/>
<line stroke="black" stroke-width="1" x1="299.9999998882413" x2="299.9999998882413" y1="0" y2="10"/>
<line stroke="black" stroke-width="1" x1="399.9999999503295" x2="399.9999999503295" y1="0" y2="10"/>
</g>
<line stroke="black" stroke-width="1" x1="0" x2="480" y1="0" y2="0"/>
<g>
<text font-size="12" text-anchor="middle" x="-0.00000029802322295176725" y="20">
0.1
</text>
<text font-size="12" text-anchor="middle" x="99.99999976406495" y="20">
0.6
</text>
<text font-size="12" text-anchor="middle" x="199.99999982615313" y="20">
1.1
</text>
<text font-size="12" text-anchor="middle" x="299.9999998882413" y="20">
1.6
</text>
<text font-size="12" text-anchor="middle" x="399.9999999503295" y="20">
2.1
</text>
</g>
<text font-size="12" text-anchor="middle" x="240" y="30">
petal_width
</text>
</g>
<g>
<g>
<line stroke="black" stroke-width="1" x1="0" x2="-10" y1="-0" y2="-0"/>
<line stroke="black" stroke-width="1" x1="0" x2="-10" y1="-91.89189189189189" y2="-91.89189189189189"/>
<line stroke="black" stroke-width="1" x1="0" x2="-10" y1="-183.78378378378378" y2="-183.78378378378378"/>
<line stroke="black" stroke-width="1" x1="0" x2="-10" y1="-275.6756756756757" y2="-275.6756756756757"/>
</g>
<line stroke="black" stroke-width="1" x1="0" x2="0" y1="0" y2="-340"/>
<g>
<text dominant-baseline="middle" font-size="12" text-anchor="end" x="-15" y="-0">
0
</text>
<text dominant-baseline="middle" font-size="12" text-anchor="end" x="-15" y="-91.89189189189189">
10
</text>
<text dominant-baseline="middle" font-size="12" text-anchor="end" x="-15" y="-183.78378378378378">
20
</text>
<text dominant-baseline="middle" font-size="12" text-anchor="end" x="-15" y="-275.6756756756757">
30
</text>
</g>
<text font-size="12" text-anchor="middle" transform="rotate(-90 -24 -170)" x="-24" y="-182">
intensity/Distribution
</text>
</g>
</g>
</svg>