<svg viewBox="0 0 600 400" xmlns="http://www.w3.org/2000/svg">
<g transform="translate(72, 364)">
<g>
<rect fill="burlywood" height="101.08108108108108" stroke="black" width="31.99999999999999" x="0" y="-101.08108108108108"/>
<rect fill="burlywood" height="340" stroke="black" width="32.000000000000014" x="31.99999999999999" y="-340"/>
<rect fill="burlywood" height="18.37837837837838" stroke="black" width="32.000000000000014" x="64" y="-18.37837837837838"/>
<rect fill="burlywood" height="0" stroke="black" width="31.999999999999986" x="96.00000000000001" y="-0"/>
<rect fill="burlywood" height="0" stroke="black" width="32" x="128" y="-0"/>
<rect fill="burlywood" height="27.56756756756757" stroke="black" width="32" x="160" y="-27.56756756756757"/>
<rect fill="burlywood" height="36.75675675675676" stroke="black" width="32" x="192" y="-36.75675675675676"/>
<rect fill="burlywood" height="110.27027027027027" stroke="black" width="32" x="224" y="-110.27027027027027"/>
<rect fill="burlywood" height="165.40540540540542" stroke="black" width="31.999999999999943" x="256" y="-165.40540540540542"/>
<rect fill="burlywood" height="156.21621621621622" stroke="black" width="32.00000000000006" x="287.99999999999994" y="-156.21621621621622"/>
<rect fill="burlywood" height="147.02702702702703" stroke="black" width="31.999999999999943" x="320" y="-147.02702702702703"/>
<rect fill="burlywood" height="128.64864864864865" stroke="black" width="32.00000000000006" x="351.99999999999994" y="-128.64864864864865"/>
<rect fill="burlywood" height="91.89189189189189" stroke="black" width="32" x="384" y="-91.89189189189189"/>
<rect fill="burlywood" height="18.37837837837838" stroke="black" width="32" x="416" y="-18.37837837837838"/>
<rect fill="burlywood" height="36.75675675675676" stroke="black" width="32" x="448" y="-36.75675675675676"/>
</g>
<g>
<g>
<line stroke="black" stroke-width="1" x1="0" x2="0" y1="0" y2="10"/>
<line stroke="black" stroke-width="1" x1="81.35593088835489" x2="81.35593088835489" y1="0" y2="10"/>
<line stroke="black" stroke-width="1" x1="162.71186177670978" x2="162.71186177670978" y1="0" y2="10"/>
<line stroke="black" stroke-width="1" x1="244.06779266506464" x2="244.06779266506464" y1="0" y2="10"/>
<line stroke="black" stroke-width="1" x1="325.42372355341956" x2="325.42372355341956" y1="0" y2="10"/>
<line stroke="black" stroke-width="1" x1="406.7796544417744" x2="406.7796544417744" y1="0" y2="10"/>
</g>
<line stroke="black" stroke-width="1" x1="0" x2="480" y1="0" y2="0"/>
<g>
<text font-size="12" text-anchor="middle" x="0" y="20">
1
</text>
<text font-size="12" text-anchor="middle" x="81.35593088835489" y="20">
2
</text>
<text font-size="12" text-anchor="middle" x="162.71186177670978" y="20">
3
</text>
<text font-size="12" text-anchor="middle" x="244.06779266506464" y="20">
4
</text>
<text font-size="12" text-anchor="middle" x="325.42372355341956" y="20">
5
</text>
<text font-size="12" text-anchor="middle" x="406.7796544417744" y="20">
6
</text>
</g>
<text font-size="12" text-anchor="middle" x="240" y="30">
petal_length
</text>
</g>
<g>
<g>
<line stroke="black" stroke-width="1" x1="0" x2="-10" y1="-0" y2="-0"/>
<line stroke="black" stroke-width="1" x1="0" x2="-10" y1="-91.89189189189189" y2="-91.89189189189189"/>
<line stroke="black" stroke-width="1" x1="0" x2="-10" y1="-183.78378378378378" y2="-183.78378378378378"/>
<line stroke="black" stroke-width="1" x1="0" x2="-10" y1="-275.6756756756757" y2="-275.6756756756757"/>
</g>
<line stroke="black" stroke-width="1" x1="0" x2="0" y1="0" y2="-340"/>
<g>
<text dominant-baseline="middle" font-size="12" text-anchor="end" x="-15" y="-0">
0
</text>
<text dominant-baseline="middle" font-size="12" text-anchor="end" x="-15" y="-91.89189189189189">
10
</text>
<text dominant-baseline="middle" font-size="12" text-anchor="end" x="-15" y="-183.78378378378378">
20
</text>
<text dominant-baseline="middle" font-size="12" text-anchor="end" x="-15" y="-275.6756756756757">
30
</text>
</g>
<text font-size="12" text-anchor="middle" transform="rotate(-90 -24 -170)" x="-24" y="-182">
intensity
</text>
</g>
</g>
</svg>