<svg viewBox="0 0 600 400" xmlns="http://www.w3.org/2000/svg">
<g transform="translate(72, 364)">
<g>
<rect fill="burlywood" height="8.292682926829269" stroke="black" width="31.99999999999997" x="0" y="-8.292682926829269"/>
<rect fill="burlywood" height="58.048780487804876" stroke="black" width="32.00000000000006" x="31.99999999999997" y="-58.048780487804876"/>
<rect fill="burlywood" height="24.878048780487806" stroke="black" width="31.99999999999997" x="64.00000000000003" y="-24.878048780487806"/>
<rect fill="burlywood" height="107.8048780487805" stroke="black" width="31.99999999999997" x="96" y="-107.8048780487805"/>
<rect fill="burlywood" height="190.73170731707316" stroke="black" width="31.99999999999997" x="127.99999999999997" y="-190.73170731707316"/>
<rect fill="burlywood" height="82.92682926829268" stroke="black" width="32.00000000000006" x="159.99999999999994" y="-82.92682926829268"/>
<rect fill="burlywood" height="315.1219512195122" stroke="black" width="32.00000000000006" x="192" y="-315.1219512195122"/>
<rect fill="burlywood" height="107.8048780487805" stroke="black" width="31.999999999999886" x="224.00000000000006" y="-107.8048780487805"/>
<rect fill="burlywood" height="149.26829268292684" stroke="black" width="32.00000000000006" x="255.99999999999994" y="-149.26829268292684"/>
<rect fill="burlywood" height="74.63414634146342" stroke="black" width="31.999999999999943" x="288" y="-74.63414634146342"/>
<rect fill="burlywood" height="24.878048780487806" stroke="black" width="32" x="319.99999999999994" y="-24.878048780487806"/>
<rect fill="burlywood" height="66.34146341463415" stroke="black" width="32.00000000000006" x="351.99999999999994" y="-66.34146341463415"/>
<rect fill="burlywood" height="8.292682926829269" stroke="black" width="31.999999999999886" x="384" y="-8.292682926829269"/>
<rect fill="burlywood" height="16.585365853658537" stroke="black" width="32.00000000000023" x="415.9999999999999" y="-16.585365853658537"/>
<rect fill="burlywood" height="8.292682926829269" stroke="black" width="31.999999999999886" x="448.0000000000001" y="-8.292682926829269"/>
</g>
<g>
<g>
<line stroke="black" stroke-width="1" x1="0" x2="0" y1="0" y2="10"/>
<line stroke="black" stroke-width="1" x1="99.99999602635717" x2="99.99999602635717" y1="0" y2="10"/>
<line stroke="black" stroke-width="1" x1="199.99999205271433" x2="199.99999205271433" y1="0" y2="10"/>
<line stroke="black" stroke-width="1" x1="299.9999880790715" x2="299.9999880790715" y1="0" y2="10"/>
<line stroke="black" stroke-width="1" x1="399.99998410542867" x2="399.99998410542867" y1="0" y2="10"/>
</g>
<line stroke="black" stroke-width="1" x1="0" x2="480" y1="0" y2="0"/>
<g>
<text font-size="12" text-anchor="middle" x="0" y="20">
2
</text>
<text font-size="12" text-anchor="middle" x="99.99999602635717" y="20">
2.5
</text>
<text font-size="12" text-anchor="middle" x="199.99999205271433" y="20">
3
</text>
<text font-size="12" text-anchor="middle" x="299.9999880790715" y="20">
3.5
</text>
<text font-size="12" text-anchor="middle" x="399.99998410542867" y="20">
4
</text>
</g>
<text font-size="12" text-anchor="middle" x="240" y="30">
sepal_width
</text>
</g>
<g>
<g>
<line stroke="black" stroke-width="1" x1="0" x2="-10" y1="-0" y2="-0"/>
<line stroke="black" stroke-width="1" x1="0" x2="-10" y1="-82.92682926829268" y2="-82.92682926829268"/>
<line stroke="black" stroke-width="1" x1="0" x2="-10" y1="-165.85365853658536" y2="-165.85365853658536"/>
<line stroke="black" stroke-width="1" x1="0" x2="-10" y1="-248.78048780487805" y2="-248.78048780487805"/>
<line stroke="black" stroke-width="1" x1="0" x2="-10" y1="-331.7073170731707" y2="-331.7073170731707"/>
</g>
<line stroke="black" stroke-width="1" x1="0" x2="0" y1="0" y2="-340"/>
<g>
<text dominant-baseline="middle" font-size="12" text-anchor="end" x="-15" y="-0">
0
</text>
<text dominant-baseline="middle" font-size="12" text-anchor="end" x="-15" y="-82.92682926829268">
10
</text>
<text dominant-baseline="middle" font-size="12" text-anchor="end" x="-15" y="-165.85365853658536">
20
</text>
<text dominant-baseline="middle" font-size="12" text-anchor="end" x="-15" y="-248.78048780487805">
30
</text>
<text dominant-baseline="middle" font-size="12" text-anchor="end" x="-15" y="-331.7073170731707">
40
</text>
</g>
<text font-size="12" text-anchor="middle" transform="rotate(-90 -24 -170)" x="-24" y="-182">
intensity/Distribution
</text>
</g>
</g>
</svg>