<svg viewBox="0 0 600 400" xmlns="http://www.w3.org/2000/svg">
<g transform="translate(72, 364)">
<g>
<g>
<circle cx="299.9999880790715" cy="-23.050845711096333" fill="#DD3355" r="5"/>
<circle cx="199.99999205271433" cy="-23.050845711096333" fill="#DD3355" r="5"/>
<circle cx="240" cy="-17.28813256590031" fill="#DD3355" r="5"/>
<circle cx="219.99997218450022" cy="-28.813558856292357" fill="#DD3355" r="5"/>
<circle cx="319.9999682108574" cy="-23.050845711096333" fill="#DD3355" r="5"/>
<circle cx="380.00000397364283" cy="-40.3389851466844" fill="#DD3355" r="5"/>
<circle cx="280.00000794728567" cy="-23.050845711096333" fill="#DD3355" r="5"/>
<circle cx="280.00000794728567" cy="-28.813558856292357" fill="#DD3355" r="5"/>
<circle cx="180.00001192092847" cy="-23.050845711096333" fill="#DD3355" r="5"/>
<circle cx="219.99997218450022" cy="-28.813558856292357" fill="#DD3355" r="5"/>
<circle cx="339.99999602635717" cy="-28.813558856292357" fill="#DD3355" r="5"/>
<circle cx="280.00000794728567" cy="-34.57627200148838" fill="#DD3355" r="5"/>
<circle cx="199.99999205271433" cy="-23.050845711096333" fill="#DD3355" r="5"/>
<circle cx="199.99999205271433" cy="-5.762713145196023" fill="#DD3355" r="5"/>
<circle cx="399.99998410542867" cy="-11.525426290392046" fill="#DD3355" r="5"/>
<circle cx="480" cy="-28.813558856292357" fill="#DD3355" r="5"/>
<circle cx="380.00000397364283" cy="-17.28813256590031" fill="#DD3355" r="5"/>
<circle cx="299.9999880790715" cy="-23.050845711096333" fill="#DD3355" r="5"/>
<circle cx="359.99997615814306" cy="-40.3389851466844" fill="#DD3355" r="5"/>
<circle cx="359.99997615814306" cy="-28.813558856292357" fill="#DD3355" r="5"/>
<circle cx="280.00000794728567" cy="-40.3389851466844" fill="#DD3355" r="5"/>
<circle cx="339.99999602635717" cy="-28.813558856292357" fill="#DD3355" r="5"/>
<circle cx="319.9999682108574" cy="-0" fill="#DD3355" r="5"/>
<circle cx="259.9999801317859" cy="-40.3389851466844" fill="#DD3355" r="5"/>
<circle cx="280.00000794728567" cy="-51.86440456738869" fill="#DD3355" r="5"/>
<circle cx="199.99999205271433" cy="-34.57627200148838" fill="#DD3355" r="5"/>
<circle cx="280.00000794728567" cy="-34.57627200148838" fill="#DD3355" r="5"/>
<circle cx="299.9999880790715" cy="-28.813558856292357" fill="#DD3355" r="5"/>
<circle cx="280.00000794728567" cy="-23.050845711096333" fill="#DD3355" r="5"/>
<circle cx="240" cy="-34.57627200148838" fill="#DD3355" r="5"/>
<circle cx="219.99997218450022" cy="-34.57627200148838" fill="#DD3355" r="5"/>
<circle cx="280.00000794728567" cy="-28.813558856292357" fill="#DD3355" r="5"/>
<circle cx="419.99996423721456" cy="-28.813558856292357" fill="#DD3355" r="5"/>
<circle cx="439.99994436900045" cy="-23.050845711096333" fill="#DD3355" r="5"/>
<circle cx="219.99997218450022" cy="-28.813558856292357" fill="#DD3355" r="5"/>
<circle cx="240" cy="-11.525426290392046" fill="#DD3355" r="5"/>
<circle cx="299.9999880790715" cy="-17.28813256590031" fill="#DD3355" r="5"/>
<circle cx="219.99997218450022" cy="-28.813558856292357" fill="#DD3355" r="5"/>
<circle cx="199.99999205271433" cy="-17.28813256590031" fill="#DD3355" r="5"/>
<circle cx="280.00000794728567" cy="-28.813558856292357" fill="#DD3355" r="5"/>
<circle cx="299.9999880790715" cy="-17.28813256590031" fill="#DD3355" r="5"/>
<circle cx="59.99998807907152" cy="-17.28813256590031" fill="#DD3355" r="5"/>
<circle cx="240" cy="-17.28813256590031" fill="#DD3355" r="5"/>
<circle cx="299.9999880790715" cy="-34.57627200148838" fill="#DD3355" r="5"/>
<circle cx="359.99997615814306" cy="-51.86440456738869" fill="#DD3355" r="5"/>
<circle cx="199.99999205271433" cy="-23.050845711096333" fill="#DD3355" r="5"/>
<circle cx="359.99997615814306" cy="-34.57627200148838" fill="#DD3355" r="5"/>
<circle cx="240" cy="-23.050845711096333" fill="#DD3355" r="5"/>
<circle cx="339.99999602635717" cy="-28.813558856292357" fill="#DD3355" r="5"/>
<circle cx="259.9999801317859" cy="-23.050845711096333" fill="#DD3355" r="5"/>
<circle cx="240" cy="-213.22032454506302" fill="#DD3355" r="5"/>
<circle cx="240" cy="-201.6949119940465" fill="#DD3355" r="5"/>
<circle cx="219.99997218450022" cy="-224.7457645748306" fill="#DD3355" r="5"/>
<circle cx="59.99998807907152" cy="-172.88135313775413" fill="#DD3355" r="5"/>
<circle cx="159.9999841054287" cy="-207.45761826955476" fill="#DD3355" r="5"/>
<circle cx="159.9999841054287" cy="-201.6949119940465" fill="#DD3355" r="5"/>
<circle cx="259.9999801317859" cy="-213.22032454506302" fill="#DD3355" r="5"/>
<circle cx="80.0000158945713" cy="-132.54236799106974" fill="#DD3355" r="5"/>
<circle cx="180.00001192092847" cy="-207.45761826955476" fill="#DD3355" r="5"/>
<circle cx="140.00000397364283" cy="-167.11864686224587" fill="#DD3355" r="5"/>
<circle cx="0" cy="-144.06779428146177" fill="#DD3355" r="5"/>
<circle cx="199.99999205271433" cy="-184.40676568877066" fill="#DD3355" r="5"/>
<circle cx="40.00000794728565" cy="-172.88135313775413" fill="#DD3355" r="5"/>
<circle cx="180.00001192092847" cy="-213.22032454506302" fill="#DD3355" r="5"/>
<circle cx="180.00001192092847" cy="-149.83050055697004" fill="#DD3355" r="5"/>
<circle cx="219.99997218450022" cy="-195.93220571853823" fill="#DD3355" r="5"/>
<circle cx="199.99999205271433" cy="-201.6949119940465" fill="#DD3355" r="5"/>
<circle cx="140.00000397364283" cy="-178.6440594132624" fill="#DD3355" r="5"/>
<circle cx="40.00000794728565" cy="-201.6949119940465" fill="#DD3355" r="5"/>
<circle cx="99.99999602635717" cy="-167.11864686224587" fill="#DD3355" r="5"/>
<circle cx="240" cy="-218.98305829932232" fill="#DD3355" r="5"/>
<circle cx="159.9999841054287" cy="-172.88135313775413" fill="#DD3355" r="5"/>
<circle cx="99.99999602635717" cy="-224.7457645748306" fill="#DD3355" r="5"/>
<circle cx="159.9999841054287" cy="-213.22032454506302" fill="#DD3355" r="5"/>
<circle cx="180.00001192092847" cy="-190.16949944302996" fill="#DD3355" r="5"/>
<circle cx="199.99999205271433" cy="-195.93220571853823" fill="#DD3355" r="5"/>
<circle cx="159.9999841054287" cy="-218.98305829932232" fill="#DD3355" r="5"/>
<circle cx="199.99999205271433" cy="-230.50847085033885" fill="#DD3355" r="5"/>
<circle cx="180.00001192092847" cy="-201.6949119940465" fill="#DD3355" r="5"/>
<circle cx="119.99997615814304" cy="-144.06779428146177" fill="#DD3355" r="5"/>
<circle cx="80.0000158945713" cy="-161.35592684736207" fill="#DD3355" r="5"/>
<circle cx="80.0000158945713" cy="-155.59322057185383" fill="#DD3355" r="5"/>
<circle cx="140.00000397364283" cy="-167.11864686224587" fill="#DD3355" r="5"/>
<circle cx="140.00000397364283" cy="-236.27117712584712" fill="#DD3355" r="5"/>
<circle cx="199.99999205271433" cy="-201.6949119940465" fill="#DD3355" r="5"/>
<circle cx="280.00000794728567" cy="-201.6949119940465" fill="#DD3355" r="5"/>
<circle cx="219.99997218450022" cy="-213.22032454506302" fill="#DD3355" r="5"/>
<circle cx="59.99998807907152" cy="-195.93220571853823" fill="#DD3355" r="5"/>
<circle cx="199.99999205271433" cy="-178.6440594132624" fill="#DD3355" r="5"/>
<circle cx="99.99999602635717" cy="-172.88135313775413" fill="#DD3355" r="5"/>
<circle cx="119.99997615814304" cy="-195.93220571853823" fill="#DD3355" r="5"/>
<circle cx="199.99999205271433" cy="-207.45761826955476" fill="#DD3355" r="5"/>
<circle cx="119.99997615814304" cy="-172.88135313775413" fill="#DD3355" r="5"/>
<circle cx="59.99998807907152" cy="-132.54236799106974" fill="#DD3355" r="5"/>
<circle cx="140.00000397364283" cy="-184.40676568877066" fill="#DD3355" r="5"/>
<circle cx="199.99999205271433" cy="-184.40676568877066" fill="#DD3355" r="5"/>
<circle cx="180.00001192092847" cy="-184.40676568877066" fill="#DD3355" r="5"/>
<circle cx="180.00001192092847" cy="-190.16949944302996" fill="#DD3355" r="5"/>
<circle cx="99.99999602635717" cy="-115.25423542516943" fill="#DD3355" r="5"/>
<circle cx="159.9999841054287" cy="-178.6440594132624" fill="#DD3355" r="5"/>
<circle cx="259.9999801317859" cy="-288.13558856292354" fill="#DD3355" r="5"/>
<circle cx="140.00000397364283" cy="-236.27117712584712" fill="#DD3355" r="5"/>
<circle cx="199.99999205271433" cy="-282.3728822874153" fill="#DD3355" r="5"/>
<circle cx="180.00001192092847" cy="-265.0847359821395" fill="#DD3355" r="5"/>
<circle cx="199.99999205271433" cy="-276.610176011907" fill="#DD3355" r="5"/>
<circle cx="199.99999205271433" cy="-322.71185369472414" fill="#DD3355" r="5"/>
<circle cx="99.99999602635717" cy="-201.6949119940465" fill="#DD3355" r="5"/>
<circle cx="180.00001192092847" cy="-305.4237348681994" fill="#DD3355" r="5"/>
<circle cx="99.99999602635717" cy="-276.610176011907" fill="#DD3355" r="5"/>
<circle cx="319.9999682108574" cy="-293.8982948384318" fill="#DD3355" r="5"/>
<circle cx="240" cy="-236.27117712584712" fill="#DD3355" r="5"/>
<circle cx="140.00000397364283" cy="-247.79661715561468" fill="#DD3355" r="5"/>
<circle cx="199.99999205271433" cy="-259.3220297066312" fill="#DD3355" r="5"/>
<circle cx="99.99999602635717" cy="-230.50847085033885" fill="#DD3355" r="5"/>
<circle cx="159.9999841054287" cy="-236.27117712584712" fill="#DD3355" r="5"/>
<circle cx="240" cy="-247.79661715561468" fill="#DD3355" r="5"/>
<circle cx="199.99999205271433" cy="-259.3220297066312" fill="#DD3355" r="5"/>
<circle cx="359.99997615814306" cy="-328.4745599702324" fill="#DD3355" r="5"/>
<circle cx="119.99997615814304" cy="-340" fill="#DD3355" r="5"/>
<circle cx="40.00000794728565" cy="-230.50847085033885" fill="#DD3355" r="5"/>
<circle cx="240" cy="-270.84744225764774" fill="#DD3355" r="5"/>
<circle cx="159.9999841054287" cy="-224.7457645748306" fill="#DD3355" r="5"/>
<circle cx="159.9999841054287" cy="-328.4745599702324" fill="#DD3355" r="5"/>
<circle cx="140.00000397364283" cy="-224.7457645748306" fill="#DD3355" r="5"/>
<circle cx="259.9999801317859" cy="-270.84744225764774" fill="#DD3355" r="5"/>
<circle cx="240" cy="-288.13558856292354" fill="#DD3355" r="5"/>
<circle cx="159.9999841054287" cy="-218.98305829932232" fill="#DD3355" r="5"/>
<circle cx="199.99999205271433" cy="-224.7457645748306" fill="#DD3355" r="5"/>
<circle cx="159.9999841054287" cy="-265.0847359821395" fill="#DD3355" r="5"/>
<circle cx="199.99999205271433" cy="-276.610176011907" fill="#DD3355" r="5"/>
<circle cx="159.9999841054287" cy="-293.8982948384318" fill="#DD3355" r="5"/>
<circle cx="359.99997615814306" cy="-311.18644114370767" fill="#DD3355" r="5"/>
<circle cx="159.9999841054287" cy="-265.0847359821395" fill="#DD3355" r="5"/>
<circle cx="159.9999841054287" cy="-236.27117712584712" fill="#DD3355" r="5"/>
<circle cx="119.99997615814304" cy="-265.0847359821395" fill="#DD3355" r="5"/>
<circle cx="199.99999205271433" cy="-293.8982948384318" fill="#DD3355" r="5"/>
<circle cx="280.00000794728567" cy="-265.0847359821395" fill="#DD3355" r="5"/>
<circle cx="219.99997218450022" cy="-259.3220297066312" fill="#DD3355" r="5"/>
<circle cx="199.99999205271433" cy="-218.98305829932232" fill="#DD3355" r="5"/>
<circle cx="219.99997218450022" cy="-253.55932343112295" fill="#DD3355" r="5"/>
<circle cx="219.99997218450022" cy="-265.0847359821395" fill="#DD3355" r="5"/>
<circle cx="219.99997218450022" cy="-236.27117712584712" fill="#DD3355" r="5"/>
<circle cx="140.00000397364283" cy="-236.27117712584712" fill="#DD3355" r="5"/>
<circle cx="240" cy="-282.3728822874153" fill="#DD3355" r="5"/>
<circle cx="259.9999801317859" cy="-270.84744225764774" fill="#DD3355" r="5"/>
<circle cx="199.99999205271433" cy="-242.03388340135535" fill="#DD3355" r="5"/>
<circle cx="99.99999602635717" cy="-230.50847085033885" fill="#DD3355" r="5"/>
<circle cx="199.99999205271433" cy="-242.03388340135535" fill="#DD3355" r="5"/>
<circle cx="280.00000794728567" cy="-253.55932343112295" fill="#DD3355" r="5"/>
<circle cx="199.99999205271433" cy="-236.27117712584712" fill="#DD3355" r="5"/>
</g>
</g>
<g>
<g>
<line stroke="black" stroke-width="1" x1="0" x2="0" y1="0" y2="10"/>
<line stroke="black" stroke-width="1" x1="99.99999602635717" x2="99.99999602635717" y1="0" y2="10"/>
<line stroke="black" stroke-width="1" x1="199.99999205271433" x2="199.99999205271433" y1="0" y2="10"/>
<line stroke="black" stroke-width="1" x1="299.9999880790715" x2="299.9999880790715" y1="0" y2="10"/>
<line stroke="black" stroke-width="1" x1="399.99998410542867" x2="399.99998410542867" y1="0" y2="10"/>
</g>
<line stroke="black" stroke-width="1" x1="0" x2="480" y1="0" y2="0"/>
<g>
<text font-size="12" text-anchor="middle" x="0" y="20">
2
</text>
<text font-size="12" text-anchor="middle" x="99.99999602635717" y="20">
2.5
</text>
<text font-size="12" text-anchor="middle" x="199.99999205271433" y="20">
3
</text>
<text font-size="12" text-anchor="middle" x="299.9999880790715" y="20">
3.5
</text>
<text font-size="12" text-anchor="middle" x="399.99998410542867" y="20">
4
</text>
</g>
<text font-size="12" text-anchor="middle" x="240" y="30">
sepal_width
</text>
</g>
<g>
<g>
<line stroke="black" stroke-width="1" x1="0" x2="-10" y1="-0" y2="-0"/>
<line stroke="black" stroke-width="1" x1="0" x2="-10" y1="-57.62711771258471" y2="-57.62711771258471"/>
<line stroke="black" stroke-width="1" x1="0" x2="-10" y1="-115.25423542516943" y2="-115.25423542516943"/>
<line stroke="black" stroke-width="1" x1="0" x2="-10" y1="-172.88135313775413" y2="-172.88135313775413"/>
<line stroke="black" stroke-width="1" x1="0" x2="-10" y1="-230.50847085033885" y2="-230.50847085033885"/>
<line stroke="black" stroke-width="1" x1="0" x2="-10" y1="-288.13558856292354" y2="-288.13558856292354"/>
</g>
<line stroke="black" stroke-width="1" x1="0" x2="0" y1="0" y2="-340"/>
<g>
<text dominant-baseline="middle" font-size="12" text-anchor="end" x="-15" y="-0">
1
</text>
<text dominant-baseline="middle" font-size="12" text-anchor="end" x="-15" y="-57.62711771258471">
2
</text>
<text dominant-baseline="middle" font-size="12" text-anchor="end" x="-15" y="-115.25423542516943">
3
</text>
<text dominant-baseline="middle" font-size="12" text-anchor="end" x="-15" y="-172.88135313775413">
4
</text>
<text dominant-baseline="middle" font-size="12" text-anchor="end" x="-15" y="-230.50847085033885">
5
</text>
<text dominant-baseline="middle" font-size="12" text-anchor="end" x="-15" y="-288.13558856292354">
6
</text>
</g>
<text font-size="12" text-anchor="middle" transform="rotate(-90 -12 -170)" x="-12" y="-182">
petal_length
</text>
</g>
</g>
</svg>