<svg viewBox="0 0 600 400" xmlns="http://www.w3.org/2000/svg">
<g transform="translate(72, 364)">
<g>
<g>
<circle cx="106.66663134539475" cy="-212.49999155600898" fill="#DD3355" r="5"/>
<circle cx="79.99998940361843" cy="-141.66666103733934" fill="#DD3355" r="5"/>
<circle cx="53.33328388355265" cy="-170" fill="#DD3355" r="5"/>
<circle cx="39.99996291266449" cy="-155.83331363068766" fill="#DD3355" r="5"/>
<circle cx="93.3333103745066" cy="-226.66664414935732" fill="#DD3355" r="5"/>
<circle cx="146.6666578363487" cy="-269.16666948133036" fill="#DD3355" r="5"/>
<circle cx="39.99996291266449" cy="-198.33333896266066" fill="#DD3355" r="5"/>
<circle cx="93.3333103745066" cy="-198.33333896266066" fill="#DD3355" r="5"/>
<circle cx="13.333320970888163" cy="-127.500008443991" fill="#DD3355" r="5"/>
<circle cx="79.99998940361843" cy="-155.83331363068766" fill="#DD3355" r="5"/>
<circle cx="146.6666578363487" cy="-240.83333051866967" fill="#DD3355" r="5"/>
<circle cx="66.66666843273026" cy="-198.33333896266066" fill="#DD3355" r="5"/>
<circle cx="66.66666843273026" cy="-141.66666103733934" fill="#DD3355" r="5"/>
<circle cx="0" cy="-141.66666103733934" fill="#DD3355" r="5"/>
<circle cx="200.00000529819079" cy="-283.3333220746787" fill="#DD3355" r="5"/>
<circle cx="186.6666207490132" cy="-340" fill="#DD3355" r="5"/>
<circle cx="146.6666578363487" cy="-269.16666948133036" fill="#DD3355" r="5"/>
<circle cx="106.66663134539475" cy="-212.49999155600898" fill="#DD3355" r="5"/>
<circle cx="186.6666207490132" cy="-254.999983112018" fill="#DD3355" r="5"/>
<circle cx="106.66663134539475" cy="-254.999983112018" fill="#DD3355" r="5"/>
<circle cx="146.6666578363487" cy="-198.33333896266066" fill="#DD3355" r="5"/>
<circle cx="106.66663134539475" cy="-240.83333051866967" fill="#DD3355" r="5"/>
<circle cx="39.99996291266449" cy="-226.66664414935732" fill="#DD3355" r="5"/>
<circle cx="106.66663134539475" cy="-184.16665259334832" fill="#DD3355" r="5"/>
<circle cx="66.66666843273026" cy="-198.33333896266066" fill="#DD3355" r="5"/>
<circle cx="93.3333103745066" cy="-141.66666103733934" fill="#DD3355" r="5"/>
<circle cx="93.3333103745066" cy="-198.33333896266066" fill="#DD3355" r="5"/>
<circle cx="119.99995231628291" cy="-212.49999155600898" fill="#DD3355" r="5"/>
<circle cx="119.99995231628291" cy="-198.33333896266066" fill="#DD3355" r="5"/>
<circle cx="53.33328388355265" cy="-170" fill="#DD3355" r="5"/>
<circle cx="66.66666843273026" cy="-155.83331363068766" fill="#DD3355" r="5"/>
<circle cx="146.6666578363487" cy="-198.33333896266066" fill="#DD3355" r="5"/>
<circle cx="119.99995231628291" cy="-297.499974668027" fill="#DD3355" r="5"/>
<circle cx="159.99997880723686" cy="-311.6666272613753" fill="#DD3355" r="5"/>
<circle cx="79.99998940361843" cy="-155.83331363068766" fill="#DD3355" r="5"/>
<circle cx="93.3333103745066" cy="-170" fill="#DD3355" r="5"/>
<circle cx="159.99997880723686" cy="-212.49999155600898" fill="#DD3355" r="5"/>
<circle cx="79.99998940361843" cy="-155.83331363068766" fill="#DD3355" r="5"/>
<circle cx="13.333320970888163" cy="-141.66666103733934" fill="#DD3355" r="5"/>
<circle cx="106.66663134539475" cy="-198.33333896266066" fill="#DD3355" r="5"/>
<circle cx="93.3333103745066" cy="-212.49999155600898" fill="#DD3355" r="5"/>
<circle cx="26.666641941776327" cy="-42.49999155600899" fill="#DD3355" r="5"/>
<circle cx="13.333320970888163" cy="-170" fill="#DD3355" r="5"/>
<circle cx="93.3333103745066" cy="-212.49999155600898" fill="#DD3355" r="5"/>
<circle cx="106.66663134539475" cy="-254.999983112018" fill="#DD3355" r="5"/>
<circle cx="66.66666843273026" cy="-141.66666103733934" fill="#DD3355" r="5"/>
<circle cx="106.66663134539475" cy="-254.999983112018" fill="#DD3355" r="5"/>
<circle cx="39.99996291266449" cy="-170" fill="#DD3355" r="5"/>
<circle cx="133.33333686546052" cy="-240.83333051866967" fill="#DD3355" r="5"/>
<circle cx="93.3333103745066" cy="-184.16665259334832" fill="#DD3355" r="5"/>
<circle cx="359.99998410542764" cy="-170" fill="#DD3355" r="5"/>
<circle cx="279.9999947018092" cy="-170" fill="#DD3355" r="5"/>
<circle cx="346.6666631345395" cy="-155.83331363068766" fill="#DD3355" r="5"/>
<circle cx="159.99997880723686" cy="-42.49999155600899" fill="#DD3355" r="5"/>
<circle cx="293.3333156726974" cy="-113.33332207467866" fill="#DD3355" r="5"/>
<circle cx="186.6666207490132" cy="-113.33332207467866" fill="#DD3355" r="5"/>
<circle cx="266.66667373092105" cy="-184.16665259334832" fill="#DD3355" r="5"/>
<circle cx="79.99998940361843" cy="-56.666677925321345" fill="#DD3355" r="5"/>
<circle cx="306.66663664358555" cy="-127.500008443991" fill="#DD3355" r="5"/>
<circle cx="119.99995231628291" cy="-99.16666948133033" fill="#DD3355" r="5"/>
<circle cx="93.3333103745066" cy="-0" fill="#DD3355" r="5"/>
<circle cx="213.33332626907895" cy="-141.66666103733934" fill="#DD3355" r="5"/>
<circle cx="226.66664723996712" cy="-28.333338962660672" fill="#DD3355" r="5"/>
<circle cx="239.9999682108553" cy="-127.500008443991" fill="#DD3355" r="5"/>
<circle cx="173.33329977812502" cy="-127.500008443991" fill="#DD3355" r="5"/>
<circle cx="319.9999576144737" cy="-155.83331363068766" fill="#DD3355" r="5"/>
<circle cx="173.33329977812502" cy="-141.66666103733934" fill="#DD3355" r="5"/>
<circle cx="200.00000529819079" cy="-99.16666948133033" fill="#DD3355" r="5"/>
<circle cx="253.33328918174345" cy="-28.333338962660672" fill="#DD3355" r="5"/>
<circle cx="173.33329977812502" cy="-70.83333051866967" fill="#DD3355" r="5"/>
<circle cx="213.33332626907895" cy="-170" fill="#DD3355" r="5"/>
<circle cx="239.9999682108553" cy="-113.33332207467866" fill="#DD3355" r="5"/>
<circle cx="266.66667373092105" cy="-70.83333051866967" fill="#DD3355" r="5"/>
<circle cx="239.9999682108553" cy="-113.33332207467866" fill="#DD3355" r="5"/>
<circle cx="279.9999947018092" cy="-127.500008443991" fill="#DD3355" r="5"/>
<circle cx="306.66663664358555" cy="-141.66666103733934" fill="#DD3355" r="5"/>
<circle cx="333.3333421636513" cy="-113.33332207467866" fill="#DD3355" r="5"/>
<circle cx="319.9999576144737" cy="-141.66666103733934" fill="#DD3355" r="5"/>
<circle cx="226.66664723996712" cy="-127.500008443991" fill="#DD3355" r="5"/>
<circle cx="186.6666207490132" cy="-84.99998311201799" fill="#DD3355" r="5"/>
<circle cx="159.99997880723686" cy="-56.666677925321345" fill="#DD3355" r="5"/>
<circle cx="159.99997880723686" cy="-56.666677925321345" fill="#DD3355" r="5"/>
<circle cx="200.00000529819079" cy="-99.16666948133033" fill="#DD3355" r="5"/>
<circle cx="226.66664723996712" cy="-99.16666948133033" fill="#DD3355" r="5"/>
<circle cx="146.6666578363487" cy="-141.66666103733934" fill="#DD3355" r="5"/>
<circle cx="226.66664723996712" cy="-198.33333896266066" fill="#DD3355" r="5"/>
<circle cx="319.9999576144737" cy="-155.83331363068766" fill="#DD3355" r="5"/>
<circle cx="266.66667373092105" cy="-42.49999155600899" fill="#DD3355" r="5"/>
<circle cx="173.33329977812502" cy="-141.66666103733934" fill="#DD3355" r="5"/>
<circle cx="159.99997880723686" cy="-70.83333051866967" fill="#DD3355" r="5"/>
<circle cx="159.99997880723686" cy="-84.99998311201799" fill="#DD3355" r="5"/>
<circle cx="239.9999682108553" cy="-141.66666103733934" fill="#DD3355" r="5"/>
<circle cx="200.00000529819079" cy="-84.99998311201799" fill="#DD3355" r="5"/>
<circle cx="93.3333103745066" cy="-42.49999155600899" fill="#DD3355" r="5"/>
<circle cx="173.33329977812502" cy="-99.16666948133033" fill="#DD3355" r="5"/>
<circle cx="186.6666207490132" cy="-141.66666103733934" fill="#DD3355" r="5"/>
<circle cx="186.6666207490132" cy="-127.500008443991" fill="#DD3355" r="5"/>
<circle cx="253.33328918174345" cy="-127.500008443991" fill="#DD3355" r="5"/>
<circle cx="106.66663134539475" cy="-70.83333051866967" fill="#DD3355" r="5"/>
<circle cx="186.6666207490132" cy="-113.33332207467866" fill="#DD3355" r="5"/>
<circle cx="266.66667373092105" cy="-184.16665259334832" fill="#DD3355" r="5"/>
<circle cx="200.00000529819079" cy="-99.16666948133033" fill="#DD3355" r="5"/>
<circle cx="373.3333050763158" cy="-141.66666103733934" fill="#DD3355" r="5"/>
<circle cx="266.66667373092105" cy="-127.500008443991" fill="#DD3355" r="5"/>
<circle cx="293.3333156726974" cy="-141.66666103733934" fill="#DD3355" r="5"/>
<circle cx="439.9999735090461" cy="-141.66666103733934" fill="#DD3355" r="5"/>
<circle cx="79.99998940361843" cy="-70.83333051866967" fill="#DD3355" r="5"/>
<circle cx="400.00001059638157" cy="-127.500008443991" fill="#DD3355" r="5"/>
<circle cx="319.9999576144737" cy="-70.83333051866967" fill="#DD3355" r="5"/>
<circle cx="386.666626047204" cy="-226.66664414935732" fill="#DD3355" r="5"/>
<circle cx="293.3333156726974" cy="-170" fill="#DD3355" r="5"/>
<circle cx="279.9999947018092" cy="-99.16666948133033" fill="#DD3355" r="5"/>
<circle cx="333.3333421636513" cy="-141.66666103733934" fill="#DD3355" r="5"/>
<circle cx="186.6666207490132" cy="-70.83333051866967" fill="#DD3355" r="5"/>
<circle cx="200.00000529819079" cy="-113.33332207467866" fill="#DD3355" r="5"/>
<circle cx="279.9999947018092" cy="-170" fill="#DD3355" r="5"/>
<circle cx="293.3333156726974" cy="-141.66666103733934" fill="#DD3355" r="5"/>
<circle cx="453.33329447993424" cy="-254.999983112018" fill="#DD3355" r="5"/>
<circle cx="453.33329447993424" cy="-84.99998311201799" fill="#DD3355" r="5"/>
<circle cx="226.66664723996712" cy="-28.333338962660672" fill="#DD3355" r="5"/>
<circle cx="346.6666631345395" cy="-170" fill="#DD3355" r="5"/>
<circle cx="173.33329977812502" cy="-113.33332207467866" fill="#DD3355" r="5"/>
<circle cx="453.33329447993424" cy="-113.33332207467866" fill="#DD3355" r="5"/>
<circle cx="266.66667373092105" cy="-99.16666948133033" fill="#DD3355" r="5"/>
<circle cx="319.9999576144737" cy="-184.16665259334832" fill="#DD3355" r="5"/>
<circle cx="386.666626047204" cy="-170" fill="#DD3355" r="5"/>
<circle cx="253.33328918174345" cy="-113.33332207467866" fill="#DD3355" r="5"/>
<circle cx="239.9999682108553" cy="-141.66666103733934" fill="#DD3355" r="5"/>
<circle cx="279.9999947018092" cy="-113.33332207467866" fill="#DD3355" r="5"/>
<circle cx="386.666626047204" cy="-141.66666103733934" fill="#DD3355" r="5"/>
<circle cx="413.33333156726974" cy="-113.33332207467866" fill="#DD3355" r="5"/>
<circle cx="480" cy="-254.999983112018" fill="#DD3355" r="5"/>
<circle cx="279.9999947018092" cy="-113.33332207467866" fill="#DD3355" r="5"/>
<circle cx="266.66667373092105" cy="-113.33332207467866" fill="#DD3355" r="5"/>
<circle cx="239.9999682108553" cy="-84.99998311201799" fill="#DD3355" r="5"/>
<circle cx="453.33329447993424" cy="-141.66666103733934" fill="#DD3355" r="5"/>
<circle cx="266.66667373092105" cy="-198.33333896266066" fill="#DD3355" r="5"/>
<circle cx="279.9999947018092" cy="-155.83331363068766" fill="#DD3355" r="5"/>
<circle cx="226.66664723996712" cy="-141.66666103733934" fill="#DD3355" r="5"/>
<circle cx="346.6666631345395" cy="-155.83331363068766" fill="#DD3355" r="5"/>
<circle cx="319.9999576144737" cy="-155.83331363068766" fill="#DD3355" r="5"/>
<circle cx="346.6666631345395" cy="-155.83331363068766" fill="#DD3355" r="5"/>
<circle cx="200.00000529819079" cy="-99.16666948133033" fill="#DD3355" r="5"/>
<circle cx="333.3333421636513" cy="-170" fill="#DD3355" r="5"/>
<circle cx="319.9999576144737" cy="-184.16665259334832" fill="#DD3355" r="5"/>
<circle cx="319.9999576144737" cy="-141.66666103733934" fill="#DD3355" r="5"/>
<circle cx="266.66667373092105" cy="-70.83333051866967" fill="#DD3355" r="5"/>
<circle cx="293.3333156726974" cy="-141.66666103733934" fill="#DD3355" r="5"/>
<circle cx="253.33328918174345" cy="-198.33333896266066" fill="#DD3355" r="5"/>
<circle cx="213.33332626907895" cy="-141.66666103733934" fill="#DD3355" r="5"/>
</g>
</g>
<g>
<g>
<line stroke="black" stroke-width="1" x1="-0.00002543131580155122" x2="-0.00002543131580155122" y1="0" y2="10"/>
<line stroke="black" stroke-width="1" x1="133.33331143414472" x2="133.33331143414472" y1="0" y2="10"/>
<line stroke="black" stroke-width="1" x1="266.66664829960524" x2="266.66664829960524" y1="0" y2="10"/>
<line stroke="black" stroke-width="1" x1="399.9999851650658" x2="399.9999851650658" y1="0" y2="10"/>
</g>
<line stroke="black" stroke-width="1" x1="0" x2="480" y1="0" y2="0"/>
<g>
<text font-size="12" text-anchor="middle" x="-0.00002543131580155122" y="20">
4.3
</text>
<text font-size="12" text-anchor="middle" x="133.33331143414472" y="20">
5.3
</text>
<text font-size="12" text-anchor="middle" x="266.66664829960524" y="20">
6.3
</text>
<text font-size="12" text-anchor="middle" x="399.9999851650658" y="20">
7.3
</text>
</g>
<text font-size="12" text-anchor="middle" x="240" y="30">
sepal_length
</text>
</g>
<g>
<g>
<line stroke="black" stroke-width="1" x1="0" x2="-10" y1="-0" y2="-0"/>
<line stroke="black" stroke-width="1" x1="0" x2="-10" y1="-70.83333051866967" y2="-70.83333051866967"/>
<line stroke="black" stroke-width="1" x1="0" x2="-10" y1="-141.66666103733934" y2="-141.66666103733934"/>
<line stroke="black" stroke-width="1" x1="0" x2="-10" y1="-212.49999155600898" y2="-212.49999155600898"/>
<line stroke="black" stroke-width="1" x1="0" x2="-10" y1="-283.3333220746787" y2="-283.3333220746787"/>
</g>
<line stroke="black" stroke-width="1" x1="0" x2="0" y1="0" y2="-340"/>
<g>
<text dominant-baseline="middle" font-size="12" text-anchor="end" x="-15" y="-0">
2
</text>
<text dominant-baseline="middle" font-size="12" text-anchor="end" x="-15" y="-70.83333051866967">
2.5
</text>
<text dominant-baseline="middle" font-size="12" text-anchor="end" x="-15" y="-141.66666103733934">
3
</text>
<text dominant-baseline="middle" font-size="12" text-anchor="end" x="-15" y="-212.49999155600898">
3.5
</text>
<text dominant-baseline="middle" font-size="12" text-anchor="end" x="-15" y="-283.3333220746787">
4
</text>
</g>
<text font-size="12" text-anchor="middle" transform="rotate(-90 -36 -170)" x="-36" y="-182">
sepal_width
</text>
</g>
</g>
</svg>